<svg width="32" height="32" viewBox="0 0 32 32" fill="none" xmlns="http://www.w3.org/2000/svg">
<path d="M26.9328 14.1076C28.4942 12.0086 29.1711 10.6673 28.9634 10.0832M26.9328 14.1076C26.7163 14.3997 26.4231 14.7873 26.053 15.271L28.9634 10.0832M26.9328 14.1076L27.7351 14.7044C27.7353 14.7042 27.7355 14.704 27.7356 14.7037C27.7358 14.7035 27.736 14.7033 27.7362 14.7031L26.9328 14.1076ZM28.9634 10.0832L28.8828 9.94669L28.9634 10.0832ZM10.5547 12.402L10.7684 12.7938C10.7769 12.8094 10.785 12.8252 10.7926 12.8413C11.0438 13.3668 11.281 13.8107 11.5032 14.1771L10.5547 12.402ZM10.5547 12.402C10.4289 12.1642 10.2516 11.8081 10.0202 11.3267L10.0202 11.3266C9.79585 10.8601 9.59894 10.4118 9.42871 9.98177C9.29666 9.63543 9.07573 9.31594 8.74228 9.08406C8.72546 9.07237 8.70829 9.06119 8.69078 9.05055L8.66139 9.03268C8.52231 8.93445 8.37641 8.86798 8.27092 8.82413L8.27007 8.82378C8.0988 8.75277 7.92197 8.70274 7.74104 8.6724C7.68399 8.66284 7.62621 8.65824 7.56836 8.65867L3.86255 8.68588C3.39114 8.68643 2.73209 8.78597 2.30676 9.33065C2.29052 9.35145 2.27511 9.37288 2.26056 9.3949L2.20637 9.47693C2.19738 9.49053 2.18873 9.50436 2.18042 9.51838C2.01215 9.80236 2 10.1001 2 10.2473C2 10.5132 2.06843 10.7619 2.14385 10.965C2.1488 10.9783 2.15403 10.9915 2.15954 11.0046C2.7124 12.3185 3.31416 13.5869 3.96501 14.8099C4.60775 16.0176 5.17494 17.007 5.66475 17.7687L10.5547 12.402ZM8.58474 21.669L8.57012 21.6545C8.45655 21.5397 8.31549 21.3835 8.15253 21.195L8.58474 21.669ZM8.58474 21.669L8.91629 21.9907L8.58474 21.669ZM11.4659 23.8352L11.4652 23.8348C10.9299 23.5232 10.4361 23.2037 9.98522 22.8752L11.4659 23.8352ZM11.4659 23.8352C12.0622 24.1818 12.7374 24.4539 13.4819 24.6596L11.4659 23.8352ZM17.3687 24.9181C17.3398 24.9207 17.3108 24.9219 17.2817 24.9219H15.752C15.0026 24.9609 14.2446 24.8706 13.4822 24.6597L17.3687 24.9181ZM17.3687 24.9181C17.8463 24.8764 18.3479 24.7105 18.7285 24.305C18.7486 24.2836 18.7677 24.2613 18.7858 24.2382M17.3687 24.9181L18.7858 24.2382M18.7858 24.2382L18.8397 24.1696C18.8559 24.149 18.8712 24.1277 18.8858 24.1059M18.7858 24.2382L18.8858 24.1059M18.8858 24.1059C19.0106 23.9182 19.0782 23.7117 19.1188 23.5641L18.1545 23.2991L19.1181 23.5667C19.1775 23.3527 19.2019 23.1355 19.2019 22.9227L19.2017 22.8992M18.8858 24.1059L19.2017 22.8992M19.2017 22.8992C19.1939 22.5696 19.2194 22.296 19.2675 22.0717L19.2675 22.0716M19.2017 22.8992L19.2675 22.0716M19.2675 22.0716C19.3278 21.7905 19.3809 21.661 19.4006 21.6243L19.2675 22.0716ZM29.7705 22.1286L28.8621 22.5466L23.5901 23.9088L23.2885 24.8622C23.2886 24.8623 23.2888 24.8623 23.2889 24.8624C23.6506 24.9767 24.045 25.0368 24.4433 24.9758L27.8218 24.9225C28.2528 24.9216 28.7224 24.8519 29.1275 24.6081C29.4202 24.4321 29.7851 24.1278 29.9169 23.6317L29.9171 23.6308C29.9994 23.3202 29.992 23.0124 29.9415 22.7318L29.9406 22.7269C29.9084 22.5536 29.8595 22.3224 29.771 22.1296C29.7708 22.1293 29.7707 22.1289 29.7705 22.1286ZM12.0604 14.9783C11.9182 14.8145 11.7326 14.5549 11.5034 14.1774L12.0604 14.9783ZM19.4188 21.5918C19.6035 21.7386 19.7863 21.9194 19.9659 22.1389C19.966 22.1391 19.9662 22.1393 19.9663 22.1395L20.7404 21.5064C20.9977 21.8214 21.3067 22.1748 21.6676 22.5672L19.4188 21.5918ZM5.66488 17.7689C6.1464 18.5182 6.63864 19.2275 7.14176 19.8962L5.66488 17.7689ZM7.14187 19.8963C7.6238 20.537 7.96772 20.9814 8.15232 21.1948L7.14187 19.8963Z" stroke="#004B94" stroke-width="2" stroke-linejoin="round"/>
</svg>
