<svg width="64" height="64" viewBox="0 0 64 64" fill="none" xmlns="http://www.w3.org/2000/svg">
<path d="M50.0003 18.9999H32.0001C31.3097 18.9999 30.7501 19.5596 30.7501 20.2499C30.7501 20.9403 31.3097 21.4999 32.0001 21.4999H50.0003C50.6906 21.4999 51.2503 20.9403 51.2503 20.2499C51.2503 19.5596 50.6906 18.9999 50.0003 18.9999Z" fill="#43607E"/>
<path d="M45.6263 25.3664C45.3938 25.1339 45.0713 25.0001 44.7425 25.0001C44.4138 25.0001 44.0913 25.1339 43.8588 25.3664C43.6263 25.5989 43.4925 25.9214 43.4925 26.2501C43.4925 26.5789 43.6263 26.9014 43.8588 27.1339C44.0913 27.3664 44.4138 27.5001 44.7425 27.5001C45.0713 27.5001 45.3938 27.3664 45.6263 27.1339C45.8588 26.9014 45.9925 26.5789 45.9925 26.2501C45.9925 25.9214 45.8588 25.5989 45.6263 25.3664Z" fill="#43607E"/>
<path d="M32.8826 5.74137C32.6501 5.50887 32.3276 5.37512 31.9988 5.37512C31.6701 5.37512 31.3476 5.50887 31.1151 5.74137C30.8826 5.97387 30.7488 6.29637 30.7488 6.62512C30.7488 6.95387 30.8826 7.27637 31.1151 7.50887C31.3476 7.74137 31.6701 7.87512 31.9988 7.87512C32.3276 7.87512 32.6501 7.74137 32.8826 7.50887C33.1151 7.27637 33.2488 6.95387 33.2488 6.62512C33.2488 6.29637 33.1151 5.97387 32.8826 5.74137Z" fill="#43607E"/>
<path d="M39.4847 24.9999H32.0001C31.3097 24.9999 30.7501 25.5596 30.7501 26.2499C30.7501 26.9403 31.3097 27.4999 32.0001 27.4999H39.4847C40.175 27.4999 40.7347 26.9403 40.7347 26.2499C40.7347 25.5596 40.175 24.9999 39.4847 24.9999Z" fill="#43607E"/>
<path d="M50.0003 32.4999H32.0001C31.3097 32.4999 30.7501 33.0596 30.7501 33.7499C30.7501 34.4403 31.3097 34.9999 32.0001 34.9999H50.0003C50.6906 34.9999 51.2503 34.4403 51.2503 33.7499C51.2503 33.0596 50.6906 32.4999 50.0003 32.4999Z" fill="#E64C66"/>
<path d="M45.6263 38.8663C45.3938 38.6338 45.0713 38.5001 44.7425 38.5001C44.4138 38.5001 44.0913 38.6338 43.8588 38.8663C43.6263 39.0988 43.4925 39.4213 43.4925 39.7501C43.4925 40.0788 43.6263 40.4013 43.8588 40.6338C44.0913 40.8663 44.4138 41.0001 44.7425 41.0001C45.0713 41.0001 45.3938 40.8663 45.6263 40.6338C45.8588 40.4013 45.9925 40.0788 45.9925 39.7501C45.9925 39.4213 45.8588 39.0988 45.6263 38.8663Z" fill="#E64C66"/>
<path d="M39.4847 38.4999H32.0001C31.3097 38.4999 30.7501 39.0596 30.7501 39.7499C30.7501 40.4403 31.3097 40.9999 32.0001 40.9999H39.4847C40.175 40.9999 40.7347 40.4403 40.7347 39.7499C40.7347 39.0596 40.175 38.4999 39.4847 38.4999Z" fill="#E64C66"/>
<path d="M50.0003 45.9999H32.0001C31.3097 45.9999 30.7501 46.5596 30.7501 47.2499C30.7501 47.9403 31.3097 48.4999 32.0001 48.4999H50.0003C50.6906 48.4999 51.2503 47.9403 51.2503 47.2499C51.2503 46.5596 50.6906 45.9999 50.0003 45.9999Z" fill="#43607E"/>
<path d="M45.6263 52.3663C45.3938 52.1338 45.0713 52.0001 44.7425 52.0001C44.4138 52.0001 44.0913 52.1338 43.8588 52.3663C43.6263 52.5988 43.4925 52.9213 43.4925 53.2501C43.4925 53.5788 43.6263 53.9013 43.8588 54.1338C44.0913 54.3663 44.4138 54.5001 44.7425 54.5001C45.0713 54.5001 45.3938 54.3663 45.6263 54.1338C45.8588 53.9013 45.9925 53.5788 45.9925 53.2501C45.9925 52.9213 45.8588 52.5988 45.6263 52.3663Z" fill="#43607E"/>
<path d="M39.4847 51.9999H32.0001C31.3097 51.9999 30.7501 52.5595 30.7501 53.2499C30.7501 53.9403 31.3097 54.4999 32.0001 54.4999H39.4847C40.175 54.4999 40.7347 53.9403 40.7347 53.2499C40.7347 52.5595 40.175 51.9999 39.4847 51.9999Z" fill="#43607E"/>
<path d="M52.4053 4.87512H42.8579C41.4778 3.55999 39.6122 2.74999 37.5598 2.74999H36.4648C35.6277 1.09275 33.9078 0 31.9999 0C30.0921 0 28.3723 1.09275 27.5351 2.74999H26.4375C24.3851 2.74999 22.5196 3.55999 21.1395 4.87512H11.5949C8.23424 4.87512 5.50012 7.60924 5.50012 10.9699V57.9053C5.50012 61.2659 8.23424 64 11.5949 64H52.4052C55.7658 64 58.4999 61.2659 58.4999 57.9053V10.9699C58.5 7.60924 55.7659 4.87512 52.4053 4.87512ZM26.4376 5.24999H28.3858C28.9481 5.24999 29.4411 4.87462 29.5907 4.33274C29.8888 3.25362 30.8796 2.5 32.0001 2.5C33.1206 2.5 34.1113 3.25362 34.4093 4.33274C34.5589 4.87462 35.0521 5.24999 35.6142 5.24999H37.5598C40.2729 5.24999 42.5062 7.34374 42.729 10.0001H21.2683C21.4912 7.34374 23.7246 5.24999 26.4376 5.24999ZM56 57.9054C56 59.8875 54.3874 61.5001 52.4053 61.5001H11.5949C9.61274 61.5001 8.00012 59.8875 8.00012 57.9054V10.9699C8.00012 8.98773 9.61274 7.37511 11.5949 7.37511H19.3882C18.9787 8.31411 18.7501 9.34936 18.7501 10.4376V11.2501C18.7501 11.9405 19.3097 12.5001 20.0001 12.5001H43.9974C44.6878 12.5001 45.2474 11.9405 45.2474 11.2501V10.4376C45.2474 9.34948 45.0188 8.31411 44.6093 7.37511H52.4053C54.3874 7.37511 56 8.98773 56 10.9699V57.9054Z" fill="#43607E"/>
<path d="M24.0512 18.6995C23.5631 18.2114 22.7716 18.2114 22.2834 18.6994L16.9382 24.0447L15.2916 22.398C14.8035 21.91 14.012 21.91 13.5237 22.398C13.0356 22.8861 13.0356 23.6776 13.5237 24.1658L16.0543 26.6965C16.2985 26.9406 16.6183 27.0626 16.9382 27.0626C17.2581 27.0626 17.5781 26.9406 17.8221 26.6965L24.0512 20.4674C24.5393 19.9792 24.5393 19.1877 24.0512 18.6995Z" fill="#E64C66"/>
<path d="M21.0001 45.9999H15.0001C14.3097 45.9999 13.7501 46.5596 13.7501 47.2499V53.2499C13.7501 53.9403 14.3097 54.4999 15.0001 54.4999H21.0001C21.6905 54.4999 22.2501 53.9403 22.2501 53.2499V47.2499C22.2501 46.5596 21.6905 45.9999 21.0001 45.9999ZM19.7501 51.9999H16.2501V48.4999H19.7501V51.9999Z" fill="#43607E"/>
<path d="M21.0001 32.4999H15.0001C14.3097 32.4999 13.7501 33.0596 13.7501 33.7499V39.7499C13.7501 40.4403 14.3097 40.9999 15.0001 40.9999H21.0001C21.6905 40.9999 22.2501 40.4403 22.2501 39.7499V33.7499C22.2501 33.0596 21.6905 32.4999 21.0001 32.4999ZM19.7501 38.4999H16.2501V34.9999H19.7501V38.4999Z" fill="#43607E"/>
</svg>
