<svg width="80" height="80" viewBox="0 0 80 80" fill="none" xmlns="http://www.w3.org/2000/svg">
  <g clip-path="url(#clip0)">
    <circle cx="33.2125" cy="43.8219" r="10.6145" fill="#FF9CAD"/>
    <path d="M67.974 26.7332C67.9732 26.7332 67.9722 26.7332 67.9713 26.7332H1.1454C0.513558 26.7325 0.000668913 27.2441 6.53983e-07 27.8759C6.53983e-07 27.8768 6.53983e-07 27.8778 6.53983e-07 27.8786V59.9551C-0.000667605 60.5869 0.510885 61.0998 1.14272 61.1005C1.14356 61.1005 1.14456 61.1005 1.1454 61.1005H46.587C47.2195 61.1005 47.7324 60.5876 47.7324 59.9551C47.7324 59.3226 47.2195 58.8097 46.587 58.8097H2.29079V29.024H66.8259V31.8882C66.8253 32.52 67.3368 33.0329 67.9687 33.0336C67.9695 33.0336 67.9705 33.0336 67.9713 33.0336C68.6032 33.0342 69.1161 32.5227 69.1167 31.8908C69.1167 31.89 69.1167 31.889 69.1167 31.8882V27.8786C69.1174 27.2468 68.6059 26.7341 67.974 26.7332Z" fill="#43607E"/>
    <path d="M60.2035 21.4152L6.74275 9.38654C6.44605 9.32022 6.13514 9.37401 5.87803 9.53623C5.62125 9.69979 5.43965 9.95824 5.37282 10.2553L2.69978 22.2839C2.56246 22.9017 2.95205 23.5139 3.56986 23.6512C4.18766 23.7885 4.79979 23.3989 4.93712 22.7811L7.36022 11.8738L59.701 23.6499C59.7838 23.6691 59.8685 23.6786 59.9536 23.6779C60.5861 23.6768 61.0979 23.163 61.0969 22.5305C61.0959 21.9958 60.7251 21.533 60.2035 21.4152Z" fill="#43607E"/>
    <path d="M53.7119 14.7874L21.6355 1.42223C21.078 1.18984 20.4357 1.42858 20.1653 1.96886L17.4923 7.31494C17.1904 7.87327 17.3982 8.57077 17.9567 8.87265C18.5151 9.17454 19.2126 8.96671 19.5145 8.40821C19.5263 8.38633 19.5375 8.36394 19.5479 8.34122V8.34389L21.7411 3.95476L52.8272 16.907C53.4126 17.1512 54.0852 16.8749 54.3294 16.2895C54.5737 15.7044 54.2973 15.0318 53.7119 14.7874Z" fill="#43607E"/>
    <path d="M54.5219 32.0793H43.9139C43.2814 32.0793 42.7686 32.5922 42.7686 33.2247C42.7686 33.8572 43.2814 34.3701 43.9139 34.3701H54.5219C55.1544 34.3701 55.6673 33.8572 55.6673 33.2247C55.6673 32.5922 55.1544 32.0793 54.5219 32.0793Z" fill="#43607E"/>
    <path d="M33.2218 32.1555C26.7262 32.1555 21.4604 37.4212 21.4604 43.9168C21.4671 50.4096 26.729 55.6715 33.2218 55.6782C39.7175 55.6782 44.9832 50.4125 44.9832 43.9168C44.9832 37.4212 39.7175 32.1555 33.2218 32.1555ZM33.2218 53.5397C27.9071 53.5397 23.5989 49.2315 23.5989 43.9168C23.6047 38.6047 27.9097 34.2997 33.2218 34.2939C38.5365 34.2939 42.8448 38.6021 42.8448 43.9168C42.8448 49.2315 38.5365 53.5397 33.2218 53.5397Z" fill="#43607E"/>
    <path d="M65.2983 35.8977C58.2147 35.8977 50.5966 37.5711 50.5966 41.2438V73.3202C50.5966 76.993 58.2147 78.6663 65.2983 78.6663C72.3818 78.6663 80 76.993 80 73.3202V41.2438C80 37.5711 72.3818 35.8977 65.2983 35.8977ZM77.3269 73.3002C77.1251 74.042 73.1169 75.9933 65.2983 75.9933C57.4796 75.9933 53.4714 74.042 53.2696 73.3202V71.2192C56.1137 72.652 60.8116 73.3202 65.2983 73.3202C69.785 73.3202 74.4842 72.6453 77.3269 71.2179V73.3002ZM77.3269 67.9541C77.1251 68.6959 73.1169 70.6472 65.2983 70.6472C57.4796 70.6472 53.4714 68.6959 53.2696 67.9742V65.8732C56.1137 67.3059 60.8116 67.9742 65.2983 67.9742C69.785 67.9742 74.4842 67.2992 77.3269 65.8718V67.9541ZM77.3269 62.608C77.1251 63.3498 73.1169 65.3011 65.2983 65.3011C57.4796 65.3011 53.4714 63.3498 53.2696 62.6281V60.5271C56.1137 61.9598 60.8116 62.6281 65.2983 62.6281C69.785 62.6281 74.4842 61.9532 77.3269 60.5258V62.608ZM77.3269 57.262C77.1251 58.0037 73.1169 59.9551 65.2983 59.9551C57.4796 59.9551 53.4714 58.0037 53.2696 57.282V55.181C56.1137 56.6138 60.8116 57.282 65.2983 57.282C69.785 57.282 74.4842 56.6071 77.3269 55.1797V57.262ZM77.3269 51.9159C77.1251 52.6577 73.1169 54.609 65.2983 54.609C57.4796 54.609 53.4714 52.6577 53.2696 51.9359V49.8349C56.1137 51.261 60.8116 51.9359 65.2983 51.9359C69.785 51.9359 74.4842 51.261 77.3269 49.8336V51.9159ZM77.3269 46.5698C77.1251 47.3116 73.1169 49.2629 65.2983 49.2629C57.4796 49.2629 53.4714 47.3116 53.2696 46.5899V44.4889C56.1137 45.9149 60.8116 46.5899 65.2983 46.5899C69.785 46.5899 74.4842 45.9149 77.3269 44.4875V46.5698ZM65.2983 43.9168C57.4917 43.9168 53.4848 41.9709 53.2696 41.2679V41.2598C53.4848 40.5154 57.4917 38.5708 65.2983 38.5708C73.0501 38.5708 77.0596 40.4873 77.3269 41.2438C77.0596 42.0003 73.0501 43.9168 65.2983 43.9168Z" fill="#43607E"/>
    <path d="M22.5297 53.4623H12.4269L7.63686 48.2231V39.5357L12.9268 34.3701H22.5297C23.1622 34.3701 23.6751 33.8572 23.6751 33.2247C23.6751 32.5922 23.1622 32.0793 22.5297 32.0793H12.4617C12.1623 32.0786 11.8745 32.1953 11.6598 32.4041L5.68955 38.2273C5.46652 38.4879 5.34423 38.8199 5.34473 39.1629V48.6682C5.34473 48.954 5.45148 49.2295 5.64411 49.4407L11.0744 55.3802C11.2914 55.6177 11.5985 55.7532 11.9204 55.7531H22.5297C23.1622 55.7531 23.6751 55.2402 23.6751 54.6077C23.6751 53.9751 23.1624 53.4623 22.5297 53.4623Z" fill="#43607E"/>
    <rect x="28" y="38.0141" width="11" height="2" rx="1" fill="#43607E"/>
    <rect x="28" y="41.0141" width="11" height="2" rx="1" fill="#43607E"/>
    <rect x="32.5" y="51.0141" width="10" height="2" rx="1" transform="rotate(-90 32.5 51.0141)" fill="#43607E"/>
  </g>
  <defs>
    <clipPath id="clip0">
      <rect width="80" height="80" fill="white"/>
    </clipPath>
  </defs>
</svg>
