<svg width="72" height="72" viewBox="0 0 72 72" fill="none" xmlns="http://www.w3.org/2000/svg">
  <circle cx="23.2405" cy="36" r="16.8608" fill="#FF9CAD"/>
  <path d="M71.608 15.5244C71.6015 15.4195 71.581 15.3152 71.5464 15.2162C71.5335 15.1775 71.5236 15.1406 71.5072 15.1031C71.4486 14.9725 71.3671 14.8535 71.2669 14.7516L56.8669 0.351562C56.765 0.250781 56.6455 0.169336 56.5142 0.111328C56.4785 0.0949218 56.4421 0.0849609 56.4052 0.0720704C56.3033 0.0369141 56.1978 0.0158204 56.0906 0.009375C56.0701 0.0134766 56.0484 0 56.0232 0H20.0232C16.7115 0.00410157 14.0273 2.6877 14.0232 6V14.8318C5.77378 18.4699 0.449951 26.6355 0.449951 35.652C0.449951 44.6684 5.77378 52.834 14.0232 56.4721V66C14.0273 69.3123 16.7115 71.9959 20.0232 72H65.6232C68.9355 71.9959 71.6197 69.3123 71.6232 66V15.6C71.6232 15.5736 71.6103 15.5508 71.608 15.5244ZM67.5263 14.4H58.4232C57.7605 14.4 57.2232 13.8627 57.2232 13.2V4.09688L67.5263 14.4ZM2.87515 35.652C2.86812 30.2391 5.01499 25.0465 8.84233 21.2191C12.6697 17.3918 17.8628 15.2449 23.2751 15.252C23.9572 15.252 24.6339 15.2854 25.3019 15.3504C34.5808 16.2674 42.0486 23.3748 43.4232 32.5969C43.5826 33.6076 43.6664 34.6289 43.674 35.652C43.6828 39.4951 42.5964 43.2609 40.5433 46.5094C38.915 49.1051 36.7207 51.2988 34.1244 52.926C27.8378 56.874 19.9031 57.0955 13.4062 53.5037C6.90933 49.9125 2.87632 43.0752 2.87515 35.652ZM37.2123 53.6783C37.3763 53.5512 37.5386 53.4252 37.6992 53.2945C38.2916 52.8176 38.8587 52.3107 39.3996 51.7764C39.9339 51.2355 40.4408 50.6689 40.9177 50.0772C41.0484 49.9166 41.1744 49.7531 41.3015 49.5891C41.4468 49.3992 41.6044 49.2193 41.7433 49.026L51.9732 59.2682C52.6505 59.9391 53.032 60.8531 53.032 61.8064C53.032 62.7604 52.6505 63.6738 51.9732 64.3453C50.5564 65.7147 48.3093 65.7147 46.8925 64.3453L36.6492 54.1201C36.8425 53.9795 37.0236 53.8236 37.2123 53.6783ZM65.6232 69.6H20.0232C18.0351 69.6 16.4232 67.9881 16.4232 66V57.409C16.4976 57.433 16.5755 57.4488 16.6511 57.4717C16.8433 57.5303 17.0378 57.5772 17.2324 57.6311C17.6812 57.7512 18.1335 57.8713 18.5906 57.9609C18.815 58.0078 19.0394 58.0512 19.2662 58.091C19.7232 58.1713 20.1843 58.2346 20.6472 58.2879C20.8541 58.3113 21.058 58.3406 21.2654 58.3582C21.9304 58.415 22.5996 58.452 23.2751 58.452C27.2419 58.4549 31.1396 57.4166 34.5785 55.4402L45.1886 66.0398C46.6775 67.6693 48.9416 68.3502 51.082 67.8111C53.223 67.2727 54.8953 65.6021 55.4355 63.4617C55.9763 61.3213 55.2978 59.0566 53.6689 57.5666L43.0634 46.9547C45.0398 43.5158 46.0787 39.6182 46.0751 35.652C46.0751 34.892 46.0388 34.1379 45.965 33.3902C45.4529 28.1473 43.132 23.2465 39.4007 19.5287C35.1334 15.2385 29.3267 12.8344 23.2751 12.852C22.5996 12.852 21.9304 12.8895 21.2654 12.9457C21.058 12.9639 20.8523 12.9926 20.646 13.0166C20.1843 13.0682 19.7255 13.1338 19.2685 13.2135C19.0406 13.2533 18.8132 13.2967 18.5871 13.3441C18.1359 13.4379 17.6882 13.548 17.2441 13.6705C17.0449 13.7244 16.8457 13.7725 16.6441 13.8322C16.5697 13.8551 16.4941 13.8709 16.4197 13.8949V6C16.4197 4.01191 18.0316 2.4 20.0197 2.4H54.8232V13.2C54.8232 15.1881 56.4351 16.8 58.4232 16.8H69.2232V66C69.2232 67.9881 67.6119 69.6 65.6232 69.6Z" fill="#43607E"/>
  <path d="M50.0233 8.4C50.0233 7.7373 49.4859 7.2 48.8233 7.2H22.4233C21.7606 7.2 21.2233 7.7373 21.2233 8.4C21.2233 9.06269 21.7606 9.6 22.4233 9.6H48.8233C49.4859 9.6 50.0233 9.06269 50.0233 8.4Z" fill="#43607E"/>
  <path d="M63.2233 28.8H48.8233C48.1606 28.8 47.6233 29.3373 47.6233 30C47.6233 30.6627 48.1606 31.2 48.8233 31.2H63.2233C63.886 31.2 64.4233 30.6627 64.4233 30C64.4233 29.3373 63.886 28.8 63.2233 28.8Z" fill="#43607E"/>
  <path d="M63.2233 36H48.8233C48.1606 36 47.6233 36.5373 47.6233 37.2C47.6233 37.8627 48.1606 38.4 48.8233 38.4H63.2233C63.886 38.4 64.4233 37.8627 64.4233 37.2C64.4233 36.5373 63.886 36 63.2233 36Z" fill="#43607E"/>
  <path d="M64.4232 44.4C64.4232 43.7373 63.8859 43.2 63.2232 43.2H47.6232C46.9605 43.2 46.4232 43.7373 46.4232 44.4C46.4232 45.0627 46.9605 45.6 47.6232 45.6H63.2232C63.8859 45.6 64.4232 45.0627 64.4232 44.4Z" fill="#43607E"/>
  <path d="M64.4233 51.6C64.4233 50.9373 63.886 50.4 63.2233 50.4H52.4233C51.7606 50.4 51.2233 50.9373 51.2233 51.6C51.2233 52.2627 51.7606 52.8 52.4233 52.8H63.2233C63.886 52.8 64.4233 52.2627 64.4233 51.6Z" fill="#43607E"/>
  <path d="M50.0232 15.6C50.0232 14.9373 49.4859 14.4 48.8232 14.4H39.2232C38.5605 14.4 38.0232 14.9373 38.0232 15.6C38.0232 16.2627 38.5605 16.8 39.2232 16.8H48.8232C49.4859 16.8 50.0232 16.2627 50.0232 15.6Z" fill="#43607E"/>
  <path d="M64.4232 22.8C64.4232 22.1373 63.8859 21.6 63.2232 21.6H45.2232C44.5605 21.6 44.0232 22.1373 44.0232 22.8C44.0232 23.4627 44.5605 24 45.2232 24H63.2232C63.8859 24 64.4232 23.4627 64.4232 22.8Z" fill="#43607E"/>
  <path d="M31.817 51.4799C34.7438 49.9213 37.1707 47.567 38.8178 44.6895C38.9127 44.5236 39.0158 44.3631 39.1049 44.1949C39.1512 44.1082 39.1875 44.0186 39.232 43.9319C39.4143 43.5815 39.5918 43.2311 39.7488 42.8725C39.9065 42.5139 40.0301 42.1729 40.1584 41.8201C40.1953 41.7182 40.2422 41.6186 40.2785 41.5154C43.3301 32.6414 39.0528 22.9113 30.4512 19.1608C21.849 15.4102 11.809 18.8977 7.38401 27.1729C5.99124 29.7797 5.26585 32.6912 5.27288 35.6473C5.26174 41.9895 8.5928 47.8682 14.0391 51.1178C19.4854 54.368 26.2406 54.508 31.817 51.4869V51.4799ZM15.7969 49.3418C14.4908 48.6299 13.2944 47.7334 12.2438 46.6799C11.5149 45.9516 10.8592 45.1541 10.2856 44.2981C10.002 43.8738 9.74124 43.4385 9.50159 42.9914C5.88987 36.1717 7.80354 27.736 14.0045 23.1428C20.2055 18.5496 28.8328 19.1777 34.3037 24.6205C39.1488 29.5113 40.2387 36.9902 36.9914 43.0606V43.0705C35.5606 45.7477 33.3668 47.9397 30.6891 49.3694C26.0438 51.893 20.4346 51.8842 15.7969 49.3465V49.3418Z" fill="#43607E"/>
  <path d="M65.6233 57.6C64.9606 57.6 64.4233 58.1373 64.4233 58.8V63.6C64.4233 64.2627 63.886 64.8 63.2233 64.8H58.4233C57.7606 64.8 57.2233 65.3373 57.2233 66C57.2233 66.6627 57.7606 67.2 58.4233 67.2H63.2233C65.2119 67.2 66.8233 65.5881 66.8233 63.6V58.8C66.8233 58.1373 66.286 57.6 65.6233 57.6Z" fill="#43607E"/>
  <rect x="17.3164" y="29.1646" width="12.9381" height="2.35238" rx="1.17619" fill="#43607E"/>
  <rect x="17.3164" y="32.6931" width="12.9381" height="2.35238" rx="1.17619" fill="#43607E"/>
  <rect x="22.6093" y="44.455" width="11.7619" height="2.35238" rx="1.17619" transform="rotate(-90 22.6093 44.455)" fill="#43607E"/>
</svg>
