<svg width="26" height="26" viewBox="0 0 26 26" fill="none" xmlns="http://www.w3.org/2000/svg">
  <g clip-path="url(#clip0)">
    <path d="M25.8992 23.5448L24.1143 18.3502C24.9728 16.6148 25.4269 14.6805 25.4299 12.7342C25.4351 9.38251 24.1383 6.21331 21.7783 3.81055C19.4179 1.40733 16.2726 0.0546184 12.9218 0.00145057C11.1662 -0.026733 9.46274 0.296743 7.85602 0.961824C6.30634 1.60334 4.91661 2.53259 3.72549 3.72371C2.53431 4.91483 1.60507 6.30456 0.9636 7.85425C0.298519 9.46096 -0.0246017 11.1653 0.00317558 12.92C0.0562419 16.2708 1.409 19.4162 3.81222 21.7766C6.21031 24.1319 9.37134 25.4283 12.7158 25.4283C12.7223 25.4283 12.7292 25.4283 12.7358 25.4283C14.6821 25.4252 16.6164 24.9712 18.3519 24.1127L23.5464 25.8976C23.7462 25.9663 23.951 25.9997 24.1535 25.9997C24.6346 25.9997 25.1026 25.8107 25.4574 25.4558C25.9616 24.9516 26.131 24.2193 25.8992 23.5448ZM24.3674 24.3658C24.3163 24.4169 24.2068 24.4945 24.0473 24.4398L18.5429 22.5484C18.4615 22.5205 18.3769 22.5065 18.2925 22.5065C18.1681 22.5065 18.0442 22.5367 17.932 22.596C16.3412 23.4376 14.5435 23.884 12.7334 23.8867C6.66246 23.8965 1.64061 18.9655 1.54443 12.8956C1.49604 9.84167 2.65771 6.97147 4.81545 4.81373C6.9732 2.65604 9.84253 1.49457 12.8973 1.54286C18.9672 1.63909 23.8978 6.65845 23.8883 12.7318C23.8855 14.542 23.4392 16.3397 22.5976 17.9304C22.498 18.1187 22.4808 18.3398 22.55 18.5413L24.4414 24.0457C24.4962 24.2051 24.4186 24.3147 24.3674 24.3658Z" fill="#46AC4A"/>
    <path d="M12.5892 18.4208C12.186 18.4208 11.7998 18.7753 11.8184 19.1915C11.8371 19.6091 12.1571 19.9623 12.5892 19.9623C12.9923 19.9623 13.3785 19.6078 13.3599 19.1915C13.3412 18.7739 13.0213 18.4208 12.5892 18.4208Z" fill="#43607E"/>
    <path d="M12.5891 6.4834C10.4747 6.4834 8.75439 8.20366 8.75439 10.3181C8.75439 10.7438 9.0995 11.0889 9.52515 11.0889C9.9508 11.0889 10.2959 10.7438 10.2959 10.3181C10.2959 9.05369 11.3247 8.02491 12.5891 8.02491C13.8536 8.02491 14.8824 9.05369 14.8824 10.3181C14.8824 11.5826 13.8536 12.6114 12.5891 12.6114C12.1635 12.6114 11.8184 12.9565 11.8184 13.3821V16.5257C11.8184 16.9514 12.1635 17.2965 12.5891 17.2965C13.0148 17.2965 13.3599 16.9514 13.3599 16.5257V14.075C15.1062 13.7173 16.4239 12.1687 16.4239 10.3181C16.4239 8.20366 14.7036 6.4834 12.5891 6.4834Z" fill="#43607E"/>
  </g>
  <defs>
    <clipPath id="clip0">
      <rect width="26" height="26" fill="white"/>
    </clipPath>
  </defs>
</svg>
