<svg width="64" height="64" viewBox="0 0 64 64" fill="none" xmlns="http://www.w3.org/2000/svg">
<path d="M45.8667 26.6667C35.8521 26.6667 27.7333 34.7854 27.7333 44.8C27.7333 54.8146 35.8521 62.9333 45.8667 62.9333C55.8813 62.9333 64 54.8146 64 44.8C63.9891 34.7901 55.8766 26.6776 45.8667 26.6667ZM45.8667 60.8C37.0302 60.8 29.8667 53.6365 29.8667 44.8C29.8667 35.9636 37.0302 28.8 45.8667 28.8C54.7031 28.8 61.8667 35.9636 61.8667 44.8C61.8568 53.6323 54.699 60.7901 45.8667 60.8Z" fill="#43607E"/>
<path d="M2.13333 46.9333V16H51.2V24.5333C51.2 25.1224 51.6776 25.6 52.2667 25.6C52.8558 25.6 53.3333 25.1224 53.3333 24.5333V10.6667C53.3297 7.72238 50.9443 5.33696 48 5.33332H40.5333V4.26665C40.5333 2.49946 39.1005 1.06665 37.3333 1.06665C35.5661 1.06665 34.1333 2.49946 34.1333 4.26665V5.33332H19.2V4.26665C19.2 2.49946 17.7672 1.06665 16 1.06665C14.2328 1.06665 12.8 2.49946 12.8 4.26665V5.33332H5.33333C2.38906 5.33696 0.00364584 7.72238 0 10.6667V46.9333C0.00364584 49.8776 2.38906 52.263 5.33333 52.2667H25.6C26.1891 52.2667 26.6667 51.7891 26.6667 51.2C26.6667 50.6109 26.1891 50.1333 25.6 50.1333H5.33333C3.56615 50.1333 2.13333 48.7005 2.13333 46.9333ZM36.2667 4.26665C36.2667 3.67759 36.7443 3.19998 37.3333 3.19998C37.9224 3.19998 38.4 3.67759 38.4 4.26665V8.53332C38.4 9.12238 37.9224 9.59999 37.3333 9.59999C36.7443 9.59999 36.2667 9.12238 36.2667 8.53332V4.26665ZM14.9333 4.26665C14.9333 3.67759 15.4109 3.19998 16 3.19998C16.5891 3.19998 17.0667 3.67759 17.0667 4.26665V8.53332C17.0667 9.12238 16.5891 9.59999 16 9.59999C15.4109 9.59999 14.9333 9.12238 14.9333 8.53332V4.26665ZM5.33333 7.46665H12.8V8.53332C12.8 10.3005 14.2328 11.7333 16 11.7333C17.7672 11.7333 19.2 10.3005 19.2 8.53332V7.46665H34.1333V8.53332C34.1333 10.3005 35.5661 11.7333 37.3333 11.7333C39.1005 11.7333 40.5333 10.3005 40.5333 8.53332V7.46665H48C49.7672 7.46665 51.2 8.89946 51.2 10.6667V13.8667H2.13333V10.6667C2.13333 8.89946 3.56615 7.46665 5.33333 7.46665Z" fill="#43607E"/>
<path d="M14.9333 24.5334C14.9333 23.3552 13.9781 22.4 12.8 22.4H8.53333C7.3552 22.4 6.39999 23.3552 6.39999 24.5334V28.8C6.39999 29.9781 7.3552 30.9334 8.53333 30.9334H12.8C13.9781 30.9334 14.9333 29.9781 14.9333 28.8V24.5334ZM8.53333 28.8V24.5334H12.8V28.8H8.53333Z" fill="#43607E"/>
<path d="M25.6 24.5334C25.6 23.3552 24.6448 22.4 23.4667 22.4H19.2C18.0219 22.4 17.0667 23.3552 17.0667 24.5334V28.8C17.0667 29.9781 18.0219 30.9334 19.2 30.9334H23.4667C24.6448 30.9334 25.6 29.9781 25.6 28.8V24.5334ZM19.2 28.8V24.5334H23.4667V28.8H19.2Z" fill="#43607E"/>
<path d="M35.2 27.7334C35.7891 27.7334 36.2667 27.2558 36.2667 26.6667V24.5334C36.2667 23.3552 35.3115 22.4 34.1333 22.4H29.8667C28.6885 22.4 27.7333 23.3552 27.7333 24.5334V28.8C27.7333 29.9781 28.6885 30.9334 29.8667 30.9334H30.9333C31.5224 30.9334 32 30.4558 32 29.8667C32 29.2776 31.5224 28.8 30.9333 28.8H29.8667V24.5334H34.1333V26.6667C34.1333 27.2558 34.6109 27.7334 35.2 27.7334Z" fill="#43607E"/>
<path d="M12.8 35.2H8.53333C7.3552 35.2 6.39999 36.1552 6.39999 37.3333V41.6C6.39999 42.7781 7.3552 43.7333 8.53333 43.7333H12.8C13.9781 43.7333 14.9333 42.7781 14.9333 41.6V37.3333C14.9333 36.1552 13.9781 35.2 12.8 35.2ZM8.53333 41.6V37.3333H12.8V41.6H8.53333Z" fill="#43607E"/>
<path d="M23.4667 35.2H19.2C18.0219 35.2 17.0667 36.1552 17.0667 37.3333V41.6C17.0667 42.7781 18.0219 43.7333 19.2 43.7333H23.4667C24.6448 43.7333 25.6 42.7781 25.6 41.6V37.3333C25.6 36.1552 24.6448 35.2 23.4667 35.2ZM19.2 41.6V37.3333H23.4667V41.6H19.2Z" fill="#43607E"/>
<path d="M45.8667 25.6C46.4558 25.6 46.9333 25.1225 46.9333 24.5334C46.9333 23.3552 45.9781 22.4 44.8 22.4H40.5333C39.3552 22.4 38.4 23.3552 38.4 24.5334C38.4 25.1225 38.8776 25.6 39.4667 25.6C40.0558 25.6 40.5333 25.1225 40.5333 24.5334H44.8C44.8 25.1225 45.2776 25.6 45.8667 25.6Z" fill="#43607E"/>
<path d="M48.8038 46.7986H50.2361V48.8212H48.8038V51.5556H46.2951V48.8212H41.1128L41 47.2413L46.2691 38.9167H48.8038V46.7986ZM43.5 46.7986H46.2951V42.3368L46.1302 42.6233L43.5 46.7986Z" fill="#E64C66"/>
</svg>
    