<svg width="26" height="26" viewBox="0 0 26 26" fill="none" xmlns="http://www.w3.org/2000/svg">
  <g clip-path="url(#clip0)">
    <path d="M0.100767 23.5448L1.88568 18.3502C1.02717 16.6148 0.573133 14.6805 0.570087 12.7342C0.564907 9.38251 1.86171 6.21331 4.22171 3.81055C6.58207 1.40733 9.7274 0.0546184 13.0782 0.00145057C14.8338 -0.026733 16.5373 0.296743 18.144 0.961824C19.6937 1.60334 21.0834 2.53259 22.2745 3.72371C23.4657 4.91483 24.3949 6.30456 25.0364 7.85425C25.7015 9.46096 26.0246 11.1653 25.9968 12.92C25.9438 16.2708 24.591 19.4162 22.1878 21.7766C19.7897 24.1319 16.6287 25.4283 13.2842 25.4283C13.2777 25.4283 13.2708 25.4283 13.2642 25.4283C11.3179 25.4252 9.38356 24.9712 7.64812 24.1127L2.45356 25.8976C2.25379 25.9663 2.04904 25.9997 1.84652 25.9997C1.36542 25.9997 0.897423 25.8107 0.542564 25.4558C0.0383587 24.9516 -0.130999 24.2193 0.100767 23.5448ZM1.63258 24.3658C1.68372 24.4169 1.7932 24.4945 1.95271 24.4398L7.45708 22.5484C7.53848 22.5205 7.62313 22.5065 7.70753 22.5065C7.83195 22.5065 7.9558 22.5367 8.06798 22.596C9.6588 23.4376 11.4565 23.884 13.2666 23.8867C19.3375 23.8965 24.3594 18.9655 24.4556 12.8956C24.504 9.84167 23.3423 6.97147 21.1845 4.81373C19.0268 2.65604 16.1575 1.49457 13.1027 1.54286C7.0328 1.63909 2.10221 6.65845 2.11165 12.7318C2.11449 14.542 2.56081 16.3397 3.40236 17.9304C3.50199 18.1187 3.5192 18.3398 3.44999 18.5413L1.55859 24.0457C1.5038 24.2051 1.58139 24.3147 1.63258 24.3658Z" fill="#E64C66"/>
    <circle cx="9" cy="13" r="1" fill="#43607E"/>
    <circle cx="13" cy="13" r="1" fill="#43607E"/>
    <circle cx="17" cy="13" r="1" fill="#43607E"/>
  </g>
  <defs>
    <clipPath id="clip0">
      <rect width="26" height="26" fill="white" transform="matrix(-1 0 0 1 26 0)"/>
    </clipPath>
  </defs>
</svg>
