<svg width="64" height="64" viewBox="0 0 64 64" fill="none" xmlns="http://www.w3.org/2000/svg">
<path d="M62.9333 13.8666H5.33333C4.74427 13.8666 4.26666 14.3442 4.26666 14.9333V27.7333C4.26666 28.3224 4.74427 28.8 5.33333 28.8C5.92239 28.8 6.4 28.3224 6.4 27.7333V16H61.8667V48H28.8C28.2109 48 27.7333 48.4776 27.7333 49.0666C27.7333 49.6557 28.2109 50.1333 28.8 50.1333H62.9333C63.5224 50.1333 64 49.6557 64 49.0666V14.9333C64 14.3442 63.5224 13.8666 62.9333 13.8666Z" fill="#43607E"/>
<path d="M30.5599 45.8666H50.1333C50.7224 45.8666 51.2 45.389 51.2 44.8C51.2 40.676 54.5427 37.3333 58.6667 37.3333C59.2557 37.3333 59.7333 36.8557 59.7333 36.2666V27.7333C59.7333 27.1442 59.2557 26.6666 58.6667 26.6666C54.5427 26.6666 51.2 23.3239 51.2 19.2C51.2 18.6109 50.7224 18.1333 50.1333 18.1333H18.1333C17.5443 18.1333 17.0667 18.6109 17.0667 19.2C17.0615 20.5104 16.7161 21.7968 16.0641 22.9333C15.9208 23.1781 15.8807 23.4692 15.9526 23.7437C16.0245 24.0177 16.2031 24.2521 16.4479 24.3948C16.6938 24.5369 16.9865 24.5755 17.2609 24.5015C17.5349 24.4276 17.7688 24.2468 17.9094 24C18.5688 22.8521 18.9865 21.5817 19.1359 20.2666H49.1307C49.6307 24.7208 53.1458 28.2359 57.6 28.7359V35.264C53.1458 35.764 49.6307 39.2791 49.1307 43.7333H30.5599C29.9708 43.7333 29.4932 44.2109 29.4932 44.8C29.4932 45.389 29.9708 45.8666 30.5599 45.8666Z" fill="#43607E"/>
<path d="M27.2958 37.2161C26.8823 37.6323 26.8823 38.3041 27.2958 38.7198C30.5167 41.988 35.5995 42.5198 39.4271 39.9896C43.2547 37.4593 44.7568 32.5745 43.0125 28.3307C41.2677 24.0875 36.7641 21.6713 32.2635 22.5651C27.7635 23.4583 24.5245 27.412 24.5333 32C24.5354 32.8687 24.6542 33.7333 24.8854 34.5708C25.0443 35.139 25.6344 35.4708 26.2026 35.312C26.7713 35.1531 27.1031 34.563 26.9437 33.9948C26.7635 33.3448 26.6703 32.6745 26.6667 32C26.6672 28.4307 29.1937 25.3609 32.6963 24.6739C36.1984 23.9869 39.6974 25.875 41.0464 29.1797C42.3953 32.4838 41.2167 36.2812 38.2338 38.2411C35.251 40.201 31.2979 39.776 28.8 37.2265C28.387 36.8099 27.7151 36.8052 27.2958 37.2161Z" fill="#43607E"/>
<path d="M52.2667 33.0666C52.8557 33.0666 53.3333 32.589 53.3333 32C53.3333 31.4109 52.8557 30.9333 52.2667 30.9333H48C47.4109 30.9333 46.9333 31.4109 46.9333 32C46.9333 32.589 47.4109 33.0666 48 33.0666H52.2667Z" fill="#43607E"/>
<path d="M23.4667 35.9359V32C23.4667 31.4109 22.9891 30.9333 22.4 30.9333H9.6V28.8H19.2C19.7891 28.8 20.2667 28.3224 20.2667 27.7333C20.2667 27.1442 19.7891 26.6666 19.2 26.6666H8.53333C7.94427 26.6666 7.46667 27.1442 7.46667 27.7333V30.9333H1.06667C0.477604 30.9333 0 31.4109 0 32V49.0666C0 49.6557 0.477604 50.1333 1.06667 50.1333H20.2667C23.7458 50.1182 26.7531 47.7026 27.5182 44.3083C28.2833 40.9145 26.6026 37.4421 23.4667 35.9359ZM21.3333 33.0666V35.2H12.8V33.0666H21.3333ZM10.6667 39.4666H2.13333V37.3333H10.6667V39.4666ZM2.13333 41.6H10.6667V43.7333H2.13333V41.6ZM2.13333 33.0666H10.6667V35.2H2.13333V33.0666ZM2.13333 45.8666H10.6667V48H2.13333V45.8666ZM12.8 48V37.3333H15.0505C13.6172 38.7375 12.8094 40.6599 12.8094 42.6666C12.8094 44.6734 13.6172 46.5958 15.0505 48H12.8ZM20.2667 48C17.3214 48 14.9333 45.6119 14.9333 42.6666C14.9333 39.7213 17.3214 37.3333 20.2667 37.3333C23.212 37.3333 25.6 39.7213 25.6 42.6666C25.6 45.6119 23.212 48 20.2667 48Z" fill="#E64C66"/>
<path d="M20.2667 39.4666C19.6776 39.4666 19.2 39.9442 19.2 40.5333C19.2 41.1223 19.6776 41.5999 20.2667 41.5999C20.8557 41.5999 21.3333 42.0776 21.3333 42.6666C21.3333 43.2557 20.8557 43.7333 20.2667 43.7333C19.6776 43.7333 19.2 44.2109 19.2 44.7999C19.2 45.389 19.6776 45.8666 20.2667 45.8666C22.0339 45.8666 23.4667 44.4338 23.4667 42.6666C23.4667 40.8994 22.0339 39.4666 20.2667 39.4666Z" fill="#43607E"/>
</svg>
