<svg width="64" height="64" viewBox="0 0 64 64" fill="none" xmlns="http://www.w3.org/2000/svg">
<g clip-path="url(#clip0)">
<path d="M39.3809 45.2109H35.8725C35.3548 45.2109 34.935 45.6306 34.935 46.1484C34.935 46.6663 35.3548 47.0859 35.8725 47.0859H39.3809C39.8987 47.0859 40.3184 46.6663 40.3184 46.1484C40.3184 45.6306 39.8987 45.2109 39.3809 45.2109Z" fill="#E64C66"/>
<path d="M60.0312 35.1744L54.9261 33.2052L52.3232 30.6024C52.1561 30.4352 51.9407 30.3447 51.7207 30.3306V28.2595C52.9475 26.9515 53.8207 25.2951 54.1731 23.4291C54.3918 23.439 54.6127 23.4213 54.8306 23.3768C56.078 23.1215 56.9833 21.9641 56.9833 20.6251V19.9414C56.9833 19.1668 56.6692 18.4558 56.1577 17.9474C56.9856 13.4449 56.3037 9.77565 54.177 7.31977C52.1198 4.94438 48.8056 3.809 44.5929 4.03688C40.7009 4.24726 38.1884 6.03801 37.3924 6.69314C36.9566 6.74489 36.2144 6.89789 35.4631 7.34864C34.4219 7.9734 33.1808 9.28578 33.1808 11.9899C33.1808 14.3489 33.5578 16.3184 33.8308 17.4358C32.9158 17.8816 32.3036 18.8476 32.3036 19.9519V20.6249C32.3036 21.964 33.209 23.1213 34.4564 23.3767C34.6743 23.4213 34.8953 23.4388 35.1139 23.429C35.4663 25.295 36.3396 26.9513 37.5663 28.2594V30.3305C37.3463 30.3446 37.1308 30.4351 36.9638 30.6022L34.3609 33.2051L29.2557 35.1743C28.8141 35.3445 28.3922 35.5654 28.002 35.8305C27.5737 36.1215 27.4625 36.7045 27.7534 37.1328C27.9347 37.3998 28.2296 37.5435 28.5296 37.5435C28.711 37.5435 28.8942 37.4909 29.0556 37.3814C29.3277 37.1965 29.6221 37.0425 29.9305 36.9235L34.6684 35.096L38.2909 40.5299C38.7399 41.2035 39.4597 41.6357 40.2653 41.7154C40.3549 41.7243 40.4445 41.7287 40.5335 41.7287C40.9999 41.7287 41.4524 41.606 41.8529 41.3794L41.0755 59.013C41.0527 59.5302 41.4535 59.9681 41.9709 59.9908C41.9849 59.9915 41.9989 59.9917 42.0129 59.9917C42.5117 59.9917 42.9267 59.5986 42.9488 59.0955L43.6703 42.7278H45.6165L46.3381 59.0955C46.3602 59.5987 46.7752 59.9917 47.2739 59.9917C47.2879 59.9917 47.3019 59.9915 47.3159 59.9908C47.8332 59.9681 48.2341 59.5302 48.2113 59.013L47.4339 41.3794C47.8344 41.606 48.2868 41.7287 48.7533 41.7287C48.8423 41.7287 48.9319 41.7243 49.0216 41.7154C49.8272 41.6357 50.5468 41.2035 50.9959 40.5299L54.6185 35.096L59.3563 36.9235C60.0209 37.1798 60.5928 37.5886 61.0426 38.0988L57.8012 41.3401C56.6301 42.5113 55.9852 44.0683 55.9852 45.7243V59.0543C55.9852 59.5721 56.405 59.9919 56.9227 59.9919C57.4405 59.9919 57.8602 59.5721 57.8602 59.0543V45.7243C57.8602 44.5692 58.3101 43.4829 59.127 42.666L61.9717 39.8213C62.086 40.2404 62.1394 40.681 62.1214 41.1315L61.3952 59.0163C61.3742 59.5337 61.7766 59.9701 62.2939 59.9912C62.3069 59.9917 62.3197 59.992 62.3326 59.992C62.8327 59.992 63.2482 59.5968 63.2686 59.0926L63.995 41.2073C64.1014 38.5543 62.5085 36.1299 60.0312 35.1744ZM36.9491 23.0425C36.7838 22.1423 35.9503 21.4881 35.0506 21.5547C34.9795 21.5598 34.9063 21.5548 34.8325 21.5398C34.4598 21.4636 34.1786 21.0702 34.1786 20.6251V19.9518C34.1786 19.5169 34.4693 19.1252 34.8401 19.0601C35.1531 19.0051 35.4529 19.1199 35.6425 19.3673C35.8146 19.5917 36.0443 19.7522 36.3064 19.8312C36.6904 19.9472 37.1138 19.8791 37.4393 19.6493C38.0255 19.2354 38.5428 18.7298 38.9767 18.1463C39.2857 17.7308 39.1992 17.1436 38.7838 16.8347C38.3681 16.5257 37.781 16.6121 37.472 17.0276C37.2556 17.3186 37.0111 17.5827 36.742 17.8164C36.4448 17.5622 36.0975 17.3784 35.7254 17.2736C35.4845 16.3508 35.0558 14.3739 35.0558 11.9897C35.0558 10.5538 35.4984 9.5449 36.3713 8.99115C37.0524 8.55902 37.7733 8.54177 37.7728 8.54165C38.0124 8.54165 38.2456 8.44727 38.4196 8.28265C38.4425 8.26115 40.7472 6.12239 44.6939 5.90901C48.3067 5.71401 51.0957 6.62602 52.7593 8.54702C54.4361 10.4833 54.9945 13.4559 54.3887 17.1766C54.1376 17.1677 53.8627 17.1867 53.5891 17.2323L52.7083 15.117C52.5286 14.6855 52.0578 14.4525 51.6056 14.5704C51.5184 14.5932 42.8608 16.7879 39.2306 12.2684C38.9065 11.8648 38.3165 11.8003 37.9126 12.1245C37.509 12.4488 37.4445 13.0388 37.7689 13.4425C41.4759 18.0578 48.8314 17.0538 51.2799 16.5642L51.9611 18.1998C52.2539 18.9029 53.0032 19.2869 53.7417 19.1128C54.0448 19.0414 54.3345 19.0398 54.4432 19.0613C54.8223 19.1368 55.1082 19.5149 55.1082 19.9412V20.6249C55.1082 21.0702 54.8271 21.4634 54.4543 21.5397C54.3807 21.5548 54.3071 21.5598 54.2362 21.5546C53.3367 21.4891 52.5032 22.1421 52.3377 23.0425C51.6557 26.7555 48.4198 29.4505 44.6434 29.4505C40.867 29.4505 37.6311 26.7555 36.9491 23.0425ZM41.108 39.6145C40.8703 39.8523 40.5939 39.8639 40.4502 39.8496C40.3065 39.8355 40.0377 39.7698 39.8512 39.49L36.2018 34.016L37.6694 32.5484L43.2719 37.4506L41.108 39.6145ZM43.7529 40.8529L43.8097 39.5644L44.6433 38.7308L45.4769 39.5644L45.5337 40.8529H43.7529ZM44.6434 36.1591L39.4413 31.6072V29.813C40.9538 30.7749 42.7433 31.3255 44.6434 31.3255C46.5436 31.3255 48.3332 30.7749 49.8457 29.813V31.6072L44.6434 36.1591ZM49.4359 39.49C49.2493 39.7699 48.9804 39.8355 48.8369 39.8496C48.6931 39.8639 48.4167 39.8523 48.1789 39.6144L46.015 37.4505L51.6176 32.5482L53.0852 34.0159L49.4359 39.49Z" fill="#43607E"/>
<path d="M29.7307 40.0875L25.153 38.0894L22.6506 35.587C22.483 35.4192 22.2675 35.3292 22.0481 35.3152V33.8404C24.1867 32.435 25.7517 30.1999 26.2546 27.5365C26.5009 27.5475 26.7495 27.5238 26.9945 27.466C28.1941 27.1821 29.0647 26.0325 29.0647 24.7325V24.049C29.0647 23.0992 28.5935 22.2448 27.8634 21.7436C28.0781 20.8928 28.1876 20.0224 28.1876 19.1463C28.1876 15.2623 26.0881 11.8413 22.9235 9.87702C22.8897 6.63538 20.1228 4.00787 16.7249 4.00787C13.327 4.00787 10.5602 6.63538 10.5264 9.87702C7.3619 11.8413 5.26239 15.2624 5.26239 19.1463C5.26239 20.0198 5.37114 20.8877 5.58464 21.7361C4.85489 22.2348 4.38526 23.0932 4.38526 24.0592V24.7325C4.38526 26.0325 5.25589 27.1821 6.45552 27.466C6.70052 27.524 6.94902 27.5475 7.1954 27.5365C7.69828 30.1999 9.26341 32.435 11.402 33.8404V35.3152C11.1827 35.3292 10.9672 35.4192 10.7995 35.587L8.29715 38.0894L3.71951 40.0875C1.39038 41.1043 -0.102129 43.4933 0.00549674 46.0324L0.559124 59.0941C0.580499 59.5978 0.995626 59.992 1.49513 59.992C1.5085 59.992 1.522 59.9917 1.5355 59.9911C2.05288 59.9692 2.45438 59.5321 2.43251 59.0147L1.87875 45.9529C1.84313 45.1113 2.06188 44.2947 2.47313 43.5918L4.93377 46.5445C5.71139 47.4777 6.13952 48.6604 6.13952 49.8749V59.0545C6.13952 59.5722 6.55927 59.992 7.07702 59.992C7.59478 59.992 8.01453 59.5722 8.01453 59.0545V49.8749C8.01453 48.2227 7.4319 46.6137 6.37415 45.3443L3.75826 42.2052C3.98064 42.0519 4.21701 41.9161 4.46964 41.8059L8.45916 40.0644L11.2784 44.6405C11.5568 45.0924 12.017 45.3988 12.5413 45.4813C12.6355 45.4962 12.73 45.5034 12.8242 45.5034C13.2528 45.5034 13.6703 45.3515 14.0013 45.069L15.7878 43.5447V59.0543C15.7878 59.5721 16.2076 59.9918 16.7253 59.9918C17.2431 59.9918 17.6628 59.5721 17.6628 59.0543V43.5449L19.4492 45.0693C19.7802 45.3518 20.1977 45.5037 20.6263 45.5037C20.7203 45.5037 20.815 45.4963 20.9092 45.4815C21.4335 45.399 21.8937 45.0927 22.1721 44.6408L24.9913 40.0645L28.9809 41.806C29.2334 41.9163 29.4699 42.052 29.6922 42.2053L27.0764 45.3444C26.0186 46.6137 25.436 48.2228 25.436 49.8751V59.0546C25.436 59.5723 25.8557 59.9921 26.3735 59.9921C26.8912 59.9921 27.311 59.5723 27.311 59.0546V49.8751C27.311 48.6605 27.7392 47.4778 28.5167 46.5447L30.9774 43.5919C31.3886 44.2948 31.6074 45.1114 31.5717 45.953L31.0181 59.0148C30.9962 59.5321 31.3977 59.9692 31.9151 59.9912C31.9286 59.9918 31.942 59.9921 31.9555 59.9921C32.455 59.9921 32.8701 59.5981 32.8915 59.0942L33.4451 46.0325C33.5526 43.4934 32.06 41.1043 29.7307 40.0875ZM16.7252 5.88288C18.7197 5.88288 20.4025 7.15526 20.9001 8.87927C19.6058 8.39077 18.1976 8.12214 16.7252 8.12214C15.2528 8.12214 13.8446 8.39077 12.5503 8.87927C13.0479 7.15526 14.7306 5.88288 16.7252 5.88288ZM9.03078 27.1501C8.86553 26.2497 8.03065 25.5957 7.1324 25.6622C7.05277 25.6678 6.97052 25.6611 6.88752 25.6413C6.53002 25.5567 6.2604 25.166 6.2604 24.7325V24.0592C6.2604 23.6243 6.55102 23.2326 6.9219 23.1674C7.2349 23.1124 7.53453 23.2274 7.72403 23.4746C7.89615 23.6991 8.12578 23.8596 8.38816 23.9388C8.77203 24.0548 9.19566 23.9867 9.52091 23.7568C10.0983 23.3493 10.6088 22.8526 11.0383 22.2806C11.3492 21.8666 11.2655 21.2788 10.8515 20.9681C10.4374 20.6572 9.84979 20.7408 9.53891 21.1548C9.32628 21.4379 9.08691 21.6953 8.82366 21.9239C8.42253 21.5809 7.93065 21.3662 7.4089 21.3011C7.22928 20.5949 7.1374 19.8728 7.1374 19.1464C7.1374 14.1017 11.4384 9.99727 16.7252 9.99727C22.0118 9.99727 26.3128 14.1015 26.3128 19.1464C26.3128 19.8714 26.2215 20.5921 26.0425 21.2969C25.7957 21.3166 25.545 21.3569 25.3128 21.4172L24.6081 20.8377C24.254 20.5464 23.8082 20.4007 23.3571 20.4276C21.9791 20.5089 14.9218 20.6953 11.301 16.362C10.969 15.9648 10.3779 15.9118 9.98054 16.2438C9.58316 16.5758 9.53028 17.1671 9.86229 17.5643C11.648 19.7014 14.2672 21.1466 17.6468 21.8596C20.2344 22.4054 22.5347 22.3524 23.436 22.3011L24.5355 23.2052C24.8381 23.4541 25.2625 23.4892 25.6013 23.292C25.7603 23.2053 26.2929 23.1226 26.5252 23.1689C26.9044 23.2443 27.1901 23.6226 27.1901 24.049V24.7325C27.1901 25.1661 26.9205 25.5568 26.563 25.6413C26.4801 25.661 26.3977 25.6681 26.3181 25.6621C25.4203 25.5968 24.585 26.2497 24.4196 27.15C23.7376 30.8631 20.5017 33.5581 16.7253 33.5581C12.9488 33.5581 9.71279 30.8631 9.03078 27.1501ZM12.8378 43.5972L10.018 39.0201L11.4625 37.5756L15.3448 41.4579L12.8378 43.5972ZM16.7252 40.1865L13.2772 36.7385V34.799C14.3536 35.2087 15.5167 35.4331 16.7252 35.4331C17.9337 35.4331 19.0968 35.2087 20.1732 34.7991V36.7385L16.7252 40.1865ZM20.6126 43.5972L18.1056 41.4579L21.9878 37.5756L23.4323 39.0201L20.6126 43.5972Z" fill="#43607E"/>
<path d="M13.2168 49.3459H10.5855C10.0678 49.3459 9.64804 49.7657 9.64804 50.2835C9.64804 50.8012 10.0678 51.221 10.5855 51.221H13.2168C13.7346 51.221 14.1543 50.8012 14.1543 50.2835C14.1543 49.7657 13.7346 49.3459 13.2168 49.3459Z" fill="#E64C66"/>
</g>
<defs>
<clipPath id="clip0">
<rect width="64" height="64" fill="white"/>
</clipPath>
</defs>
</svg>
