<svg width="64" height="64" viewBox="0 0 64 64" fill="none" xmlns="http://www.w3.org/2000/svg">
<g clip-path="url(#clip0)">
<path d="M63.2824 14H5.68239C5.09333 14 4.61572 14.4776 4.61572 15.0667V32.5333C4.61572 33.1224 5.09333 33.6 5.68239 33.6C6.27145 33.6 6.74906 33.1224 6.74906 32.5333V16.1333H62.2157V48.1333H23.4824C22.8933 48.1333 22.4157 48.6109 22.4157 49.2C22.4157 49.7891 22.8933 50.2667 23.4824 50.2667H63.2824C63.8714 50.2667 64.349 49.7891 64.349 49.2V15.0667C64.349 14.4776 63.8714 14 63.2824 14Z" fill="#43607E"/>
<path d="M23.5 46H50.4824C51.0714 46 51.549 45.5224 51.549 44.9333C51.549 40.8094 54.8918 37.4667 59.0157 37.4667C59.6048 37.4667 60.0824 36.9891 60.0824 36.4V27.8667C60.0824 27.2776 59.6048 26.8 59.0157 26.8C54.8918 26.8 51.549 23.4573 51.549 19.3333C51.549 18.7443 51.0714 18.2667 50.4824 18.2667H18.4824C17.8933 18.2667 17.4157 18.7443 17.4157 19.3333C17.4105 20.6437 17.0652 21.9302 16.4131 23.0667C16.2699 23.3115 16.2298 23.6026 16.3017 23.8771C16.3735 24.151 16.5522 24.3854 16.797 24.5281C17.0428 24.6703 17.3355 24.7088 17.61 24.6349C17.8839 24.5609 18.1178 24.3802 18.2584 24.1333C18.9178 22.9854 19.3355 21.7151 19.485 20.4H49.4798C49.9798 24.8542 53.4949 28.3693 57.949 28.8693V35.3974C53.4949 35.8974 49.9798 39.4125 49.4798 43.8667H23.5C22.9109 43.8667 22.4333 44.3443 22.4333 44.9333C22.4333 45.5224 22.9109 46 23.5 46Z" fill="#43607E"/>
<path d="M27.6449 37.3495C27.2313 37.7656 27.2313 38.4375 27.6449 38.8531C30.8657 42.1213 35.9485 42.6531 39.7761 40.1229C43.6037 37.5927 45.1058 32.7078 43.3616 28.4641C41.6168 24.2208 37.1131 21.8047 32.6126 22.6984C28.1126 23.5917 24.8735 27.5453 24.8824 32.1333C24.8845 33.0021 25.0032 33.8667 25.2345 34.7042C25.3933 35.2724 25.9834 35.6042 26.5516 35.4453C27.1204 35.2865 27.4522 34.6964 27.2928 34.1281C27.1126 33.4781 27.0194 32.8078 27.0157 32.1333C27.0162 28.5641 29.5428 25.4943 33.0454 24.8073C36.5475 24.1203 40.0464 26.0083 41.3954 29.313C42.7444 32.6172 41.5657 36.4146 38.5829 38.3745C35.6001 40.3344 31.647 39.9094 29.149 37.3599C28.736 36.9432 28.0641 36.9385 27.6449 37.3495Z" fill="#43607E"/>
<path d="M19.2905 44.3523C19.8733 44.1942 20.2191 43.5952 20.0644 43.0119C18.8752 38.4406 14.6177 35.3504 9.90324 35.636C5.18874 35.9216 1.33545 39.5032 0.706192 44.1842C0.0776694 48.865 2.84899 53.3369 7.3211 54.8565C11.7925 56.3764 16.7149 54.5189 19.0685 50.4242C19.5138 49.6487 19.8529 48.8168 20.0778 47.9512C20.2286 47.3629 19.8733 46.7634 19.285 46.6125C18.6962 46.4614 18.0967 46.8167 17.9463 47.4053C17.7724 48.0775 17.5106 48.7231 17.1667 49.3262C15.3291 52.5079 11.4967 53.9441 8.02067 52.7538C4.54506 51.5637 2.39758 48.0797 2.89592 44.4393C3.39399 40.7995 6.39921 38.0208 10.0671 37.8089C13.7349 37.5969 17.0403 40.0104 17.9549 43.5689C18.1087 44.1529 18.7052 44.5029 19.2905 44.3523Z" fill="#E64C66"/>
<path d="M52.6157 33.2C53.2048 33.2 53.6824 32.7224 53.6824 32.1333C53.6824 31.5443 53.2048 31.0667 52.6157 31.0667H48.349C47.76 31.0667 47.2824 31.5443 47.2824 32.1333C47.2824 32.7224 47.76 33.2 48.349 33.2H52.6157Z" fill="#43607E"/>
<path d="M20.3333 33.2C20.9224 33.2 21.4 32.7224 21.4 32.1333C21.4 31.5443 20.9224 31.0667 20.3333 31.0667H16.0667C15.4776 31.0667 15 31.5443 15 32.1333C15 32.7224 15.4776 33.2 16.0667 33.2H20.3333Z" fill="#43607E"/>
<path d="M30.7063 35.9094C30.9079 36.1089 31.1803 36.2203 31.4636 36.2188C31.7475 36.2203 32.0199 36.1089 32.2209 35.9094L38.2584 29.8719C38.6767 29.4537 38.6767 28.7755 38.2584 28.3573C37.8402 27.9391 37.1621 27.9391 36.7438 28.3573L30.7063 34.3948C30.5043 34.5948 30.3907 34.8677 30.3907 35.1521C30.3907 35.4365 30.5043 35.7089 30.7063 35.9094Z" fill="#43607E"/>
<path d="M6.34727 49.6594C6.569 49.879 6.86865 50.0017 7.18033 50C7.49259 50.0017 7.79224 49.879 8.0134 49.6594L14.655 43.0127C15.1151 42.5523 15.1151 41.8057 14.655 41.3453C14.1949 40.8849 13.4489 40.8849 12.9889 41.3453L6.34727 47.992C6.12496 48.2122 6.00006 48.5126 6.00006 48.8257C6.00006 49.1388 6.12496 49.4386 6.34727 49.6594Z" fill="#E64C66"/>
<path d="M14.6529 49.6594C14.4311 49.879 14.1315 50.0017 13.8198 50C13.5075 50.0017 13.2079 49.879 12.9867 49.6594L6.34512 43.0127C5.88504 42.5523 5.88504 41.8057 6.34512 41.3453C6.8052 40.8849 7.55117 40.8849 8.01125 41.3453L14.6529 47.992C14.8752 48.2122 15.0001 48.5126 15.0001 48.8257C15.0001 49.1388 14.8752 49.4386 14.6529 49.6594Z" fill="#E64C66"/>
<path d="M32.2209 29.8719C32.635 29.4547 32.6334 28.7808 32.2168 28.3656C31.8006 27.9505 31.1267 27.9505 30.7105 28.3656C30.2944 28.7808 30.2923 29.4547 30.7063 29.8719C30.9069 30.074 31.1793 30.1875 31.4636 30.1875C31.748 30.1875 32.0209 30.074 32.2209 29.8719Z" fill="#43607E"/>
<path d="M36.7438 34.3948C36.3298 34.812 36.3313 35.4859 36.748 35.901C37.1641 36.3162 37.8381 36.3162 38.2542 35.901C38.6704 35.4859 38.6725 34.812 38.2584 34.3948C38.0579 34.1927 37.7855 34.0792 37.5011 34.0792C37.2167 34.0792 36.9438 34.1927 36.7438 34.3948Z" fill="#43607E"/>
</g>
<defs>
<clipPath id="clip0">
<rect width="64" height="64" fill="white"/>
</clipPath>
</defs>
</svg>
