<svg width="58" height="58" viewBox="0 0 58 58" fill="none" xmlns="http://www.w3.org/2000/svg">
<g clip-path="url(#clip0)">
<path d="M56.7916 55.5834H1.20837C0.541371 55.5834 0 56.1246 0 56.7916C0 57.4586 0.541371 58 1.20837 58H56.7917C57.4587 58 58.0001 57.4586 58.0001 56.7916C58 56.1246 57.4586 55.5834 56.7916 55.5834Z" fill="#43607E"/>
<path d="M10.875 41.0834H3.625C2.958 41.0834 2.41663 41.6247 2.41663 42.2917V56.7917C2.41663 57.4586 2.958 58 3.625 58H10.875C11.542 58 12.0834 57.4586 12.0834 56.7916V42.2916C12.0834 41.6246 11.542 41.0834 10.875 41.0834ZM9.66663 55.5834H4.83337V43.5H9.66674V55.5834H9.66663Z" fill="#43607E"/>
<path d="M25.375 29H18.125C17.458 29 16.9166 29.5414 16.9166 30.2084V56.7917C16.9166 57.4587 17.458 58.0001 18.125 58.0001H25.375C26.042 58.0001 26.5834 57.4587 26.5834 56.7917V30.2084C26.5834 29.5414 26.042 29 25.375 29ZM24.1666 55.5834H19.3333V31.4166H24.1666V55.5834Z" fill="#43607E"/>
<path d="M39.875 33.8334H32.625C31.958 33.8334 31.4166 34.3747 31.4166 35.0417V56.7917C31.4166 57.4587 31.958 58.0001 32.625 58.0001H39.875C40.542 58.0001 41.0834 57.4587 41.0834 56.7917V35.0417C41.0834 34.3746 40.542 33.8334 39.875 33.8334ZM38.6666 55.5834H33.8332V36.25H38.6666V55.5834Z" fill="#43607E"/>
<path d="M54.375 19.3334H47.125C46.458 19.3334 45.9166 19.8747 45.9166 20.5417V56.7918C45.9166 57.4588 46.458 58.0001 47.125 58.0001H54.375C55.042 58.0001 55.5834 57.4588 55.5834 56.7918V20.5417C55.5834 19.8746 55.042 19.3334 54.375 19.3334ZM53.1666 55.5834H48.3333V21.75H53.1666V55.5834Z" fill="#43607E"/>
<path d="M7.25 21.75C4.58438 21.75 2.41663 23.9178 2.41663 26.5834C2.41663 29.249 4.58438 31.4167 7.25 31.4167C9.91562 31.4167 12.0834 29.249 12.0834 26.5834C12.0834 23.9178 9.91562 21.75 7.25 21.75ZM7.25 29C5.916 29 4.83337 27.9149 4.83337 26.5834C4.83337 25.2518 5.916 24.1667 7.25 24.1667C8.584 24.1667 9.66663 25.2519 9.66663 26.5834C9.66663 27.9149 8.584 29 7.25 29Z" fill="#43607E"/>
<path d="M50.75 0C48.0844 0 45.9166 2.16775 45.9166 4.83337C45.9166 7.49899 48.0844 9.66674 50.75 9.66674C53.4156 9.66674 55.5834 7.49899 55.5834 4.83337C55.5834 2.16775 53.4156 0 50.75 0ZM50.75 7.25C49.416 7.25 48.3334 6.16488 48.3334 4.83337C48.3334 3.50175 49.416 2.41674 50.75 2.41674C52.084 2.41674 53.1666 3.50186 53.1666 4.83337C53.1666 6.16488 52.084 7.25 50.75 7.25Z" fill="#43607E"/>
<path d="M49.0439 6.53947C48.5726 6.06822 47.8065 6.06822 47.3353 6.53947L37.9586 15.9161C37.4874 16.3874 37.4874 17.1535 37.9586 17.6247C38.1955 17.8591 38.5048 17.9776 38.8141 17.9776C39.121 17.9776 39.4304 17.8616 39.6672 17.6247L49.0439 8.24809C49.5151 7.77684 49.5151 7.01072 49.0439 6.53947Z" fill="#43607E"/>
<path d="M33.3282 16.5445L25.5659 14.3309C24.9158 14.1424 24.256 14.5194 24.0748 15.1623C23.8911 15.8051 24.2633 16.4721 24.9036 16.6558L32.666 18.8694C32.7771 18.9008 32.8884 18.9153 32.9971 18.9153C33.524 18.9153 34.0073 18.5697 34.1595 18.038C34.3432 17.3977 33.9711 16.7282 33.3282 16.5445Z" fill="#E64C66"/>
<path d="M19.865 16.0056C19.4494 15.4836 18.6905 15.399 18.1685 15.8122L9.05762 23.0767C8.53562 23.4949 8.44862 24.2536 8.86675 24.7756C9.106 25.0752 9.45887 25.23 9.81162 25.23C10.075 25.23 10.3409 25.143 10.5632 24.969L19.6741 17.7045C20.1961 17.2864 20.2831 16.5276 19.865 16.0056Z" fill="#43607E"/>
<path d="M36.25 14.5C33.5844 14.5 31.4166 16.6678 31.4166 19.3334C31.4166 21.999 33.5844 24.1667 36.25 24.1667C38.9156 24.1667 41.0834 21.999 41.0834 19.3334C41.0834 16.6678 38.9156 14.5 36.25 14.5ZM36.25 21.75C34.916 21.75 33.8334 20.6649 33.8334 19.3334C33.8334 18.0018 34.916 16.9167 36.25 16.9167C37.584 16.9167 38.6666 18.0019 38.6666 19.3334C38.6666 20.6649 37.584 21.75 36.25 21.75Z" fill="#E64C66"/>
<path d="M21.75 9.66663C19.0844 9.66663 16.9166 11.8344 16.9166 14.5C16.9166 17.1656 19.0844 19.3334 21.75 19.3334C24.4156 19.3334 26.5834 17.1656 26.5834 14.5C26.5834 11.8344 24.4156 9.66663 21.75 9.66663ZM21.75 16.9166C20.416 16.9166 19.3334 15.8315 19.3334 14.5C19.3334 13.1684 20.416 12.0834 21.75 12.0834C23.084 12.0834 24.1666 13.1685 24.1666 14.5C24.1666 15.8316 23.084 16.9166 21.75 16.9166Z" fill="#E64C66"/>
</g>
<defs>
<clipPath id="clip0">
<rect width="58" height="58" fill="white"/>
</clipPath>
</defs>
</svg>
