<svg width="80" height="80" viewBox="0 0 80 80" fill="none" xmlns="http://www.w3.org/2000/svg">
  <g clip-path="url(#clip0)">
    <circle cx="55.8608" cy="26.8608" r="16.8608" fill="#FF9CAD"/>
    <rect x="49" y="20.0253" width="12.9381" height="2.35238" rx="1.17619" fill="#43607E"/>
    <rect x="49" y="23.5539" width="12.9381" height="2.35238" rx="1.17619" fill="#43607E"/>
    <rect x="54.2928" y="35.3158" width="11.7619" height="2.35238" rx="1.17619" transform="rotate(-90 54.2928 35.3158)" fill="#43607E"/>
    <path d="M78.5926 47.0227C76.9239 45.0311 74.1803 44.3384 71.7664 45.2984L59.4965 50.18C57.948 50.7965 56.2201 50.8612 54.6295 50.3638L35.7861 44.4556C34.66 44.1022 33.4906 43.9233 32.3102 43.9233H26.1817C25.8362 43.2684 25.1495 42.8204 24.3591 42.8204H20.1257V42.7728C20.1257 41.615 19.184 40.6726 18.0255 40.6726H2.10022C0.942383 40.6726 0 41.615 0 42.7728V67.3187C0 68.4766 0.942383 69.4189 2.10022 69.4189H18.0261C19.184 69.4189 20.1264 68.4766 20.1264 67.3187V67.2711H24.3591C25.1416 67.2711 25.8234 66.8329 26.1719 66.1896C32.077 69.5386 42.2083 70.8527 48.0591 71.3489C48.6243 71.3965 49.1919 71.4203 49.7589 71.4203C52.1875 71.4203 54.6106 70.9833 56.8524 70.1337C59.4959 69.1315 62.2187 67.7588 64.9451 66.0529C65.4944 65.7098 65.6604 64.9866 65.3174 64.4373C64.9738 63.8885 64.2505 63.7219 63.7018 64.0655C61.1054 65.6897 58.5211 66.9934 56.0218 67.9413C53.5822 68.866 50.8972 69.2358 48.2569 69.0124C34.455 67.8412 28.595 65.0378 26.4197 63.5858V46.2677H32.3102C33.252 46.2677 34.1858 46.4105 35.0849 46.6925L53.9227 52.5995L53.9447 52.6062C53.9453 52.6062 53.9624 52.6117 53.9624 52.6117C55.2698 53.0157 56.0785 54.3146 55.8441 55.6329L55.8167 55.7873C55.5756 57.1393 54.3176 58.0987 52.9486 57.9694L37.3657 56.5051C36.7243 56.4447 36.1499 56.9183 36.0889 57.5629C36.0285 58.2074 36.5021 58.7793 37.1466 58.8397L52.7295 60.3039C52.8845 60.3186 53.039 60.3259 53.1922 60.3259C55.5811 60.3259 57.699 58.5889 58.1244 56.1981L58.1525 56.0437C58.3423 54.9756 58.1708 53.9148 57.721 52.9938C58.6225 52.9077 59.5136 52.6971 60.3632 52.359L72.6331 47.4774C74.1053 46.8915 75.7782 47.3138 76.7957 48.5284C78.0036 49.9695 77.9285 52.0758 76.6217 53.4283C74.748 55.3686 71.7395 58.2672 68.0499 61.0596C67.5336 61.4502 67.4323 62.1857 67.8229 62.7014C68.2135 63.2178 68.9484 63.3197 69.4647 62.9291C73.274 60.0464 76.3764 57.0575 78.3081 55.0574C80.4505 52.8393 80.5725 49.3854 78.5926 47.0227ZM17.7814 43.9929V67.0746H2.34436V43.017H17.7814V43.9929ZM24.0753 64.1913V64.9261H20.1257V45.1648H24.0753V64.1913Z" fill="#43607E"/>
    <path d="M55.2855 45.1648C65.3679 45.1648 73.5711 36.9623 73.5711 26.8793C73.5711 16.7963 65.3679 8.59373 55.2855 8.59373C45.2025 8.59373 37 16.7969 37 26.8793C37 36.9623 45.2025 45.1648 55.2855 45.1648ZM55.2855 10.9381C64.0752 10.9381 71.2267 18.0896 71.2267 26.8793C71.2267 35.6695 64.0758 42.8204 55.2855 42.8204C46.4952 42.8204 39.3444 35.6695 39.3444 26.8793C39.3444 18.089 46.4959 10.9381 55.2855 10.9381Z" fill="#43607E"/>
  </g>
  <defs>
    <clipPath id="clip0">
      <rect width="80" height="80" fill="white"/>
    </clipPath>
  </defs>
</svg>
