<svg width="20" height="24" viewBox="0 0 20 24" fill="none" xmlns="http://www.w3.org/2000/svg" data-v-3c2b5c39=""><path d="M10.0001 0C10.0001 0 7.2413 3.31034 0.896606 3.31034V11.2076C0.896606 15.3314 2.6875 19.3084 5.92999 21.8566C7.07743 22.7586 8.43095 23.5345 10.0001 24C11.5692 23.5345 12.9223 22.7586 14.0701 21.8566C17.3126 19.3084 19.1035 15.3314 19.1035 11.2076V3.31034C12.7588 3.31034 10.0001 0 10.0001 0Z" fill="#556080" data-v-3c2b5c39=""></path> <path d="M9.99996 21.377C9.12148 21.0323 8.27113 20.539 7.46424 19.9047C4.90617 17.8945 3.37927 14.6433 3.37927 11.2076V5.63916C6.43762 5.24896 8.6092 4.18509 9.99996 3.23999C11.3907 4.18509 13.5623 5.24896 16.6207 5.63916V11.2076C16.6207 14.6433 15.0938 17.8945 12.5361 19.9047C11.7288 20.539 10.8784 21.0323 9.99996 21.377Z" fill="#4FBA6F" data-v-3c2b5c39=""></path> <path d="M6.47058 13.0588L8.94117 15.5294L14.5882 9.88232" stroke="white" stroke-width="2" stroke-linecap="round" stroke-linejoin="round" data-v-3c2b5c39=""></path></svg>
